<?xml version="1.0" encoding="UTF-8"?>
<!DOCTYPE svg PUBLIC "-//W3C//DTD SVG 1.1//EN" "http://www.w3.org/Graphics/SVG/1.1/DTD/svg11.dtd">
<!-- Creator: CorelDRAW X7 -->
<svg xmlns="http://www.w3.org/2000/svg" xml:space="preserve" width="1.6844in" height="1.6844in" version="1.1" style="shape-rendering:geometricPrecision; text-rendering:geometricPrecision; image-rendering:optimizeQuality; fill-rule:evenodd; clip-rule:evenodd"
viewBox="0 0 43 43"
 xmlns:xlink="http://www.w3.org/1999/xlink">
 <defs>
  <style type="text/css">
   <![CDATA[
    .fil0 {fill:#F2AD09}
   ]]>
  </style>
 </defs>
 <g id="Layer_x0020_1">
  <metadata id="CorelCorpID_0Corel-Layer"/>
  <path class="fil0" d="M22 0c12,0 21,10 21,22 0,12 -9,21 -21,21 -12,0 -22,-9 -22,-21 0,-12 10,-22 22,-22zm0 1c11,0 20,9 20,21 0,11 -9,20 -20,20 -12,0 -21,-9 -21,-20 0,-12 9,-21 21,-21z"/>
  <g id="_1588485091728">
   <path class="fil0" d="M28 15l0 0c0,0 0,0 0,0l0 -5c0,0 0,0 0,0 1,-1 1,-2 0,-2 -1,0 -2,1 -1,2l-3 4c0,0 -1,-2 -1,-3 0,0 -1,-3 -1,-3 0,0 1,-1 1,-2 0,0 -1,0 -1,0 -1,0 -1,0 -1,0 0,1 0,2 0,2l-2 6c0,0 0,0 0,0 0,0 0,0 0,0 0,0 0,0 0,0l-2 -3c0,0 -1,-1 -1,-1 1,-1 1,-2 -1,-2 0,0 0,1 0,1 0,1 1,1 1,1 0,0 0,0 0,0l0 5c0,0 0,0 -1,0 0,0 0,0 0,-1 0,0 -2,-1 -2,-1 0,-1 -1,-2 -2,-1 0,0 0,1 0,1 0,1 1,1 1,0l2 6 15 0 2 -6c2,0 2,-1 1,-2 -1,0 -2,0 -1,2l-1 0c0,0 -1,1 -2,2z"/>
   <polygon class="fil0" points="20,20 14,20 14,22 29,22 29,20 25,20 "/>
   <path class="fil0" d="M30 27l0 -1c1,0 2,0 2,0 1,0 1,1 1,1 0,1 1,1 0,2 -1,0 -2,0 -3,0l0 -2zm-19 8l0 0 3 0 0 0c0,-1 3,-7 3,-7l0 -1c1,-1 1,-1 2,-1l0 -2 -5 0 0 2c1,0 2,0 1,0 0,1 0,3 -1,3 0,1 0,3 -1,4 0,-1 0,-2 0,-2 -1,-1 -1,-1 -1,-2 0,0 0,-1 -1,-1 0,-1 0,-1 0,-2 0,0 0,0 1,0l0 -2 -5 0 0 2c1,0 1,0 1,1 0,0 0,1 1,1 0,0 1,3 1,3 0,1 0,2 1,2 0,0 0,1 0,2zm10 -1c0,0 0,0 0,0l0 0c-1,0 -1,0 -2,0l0 1 6 0 0 -1c0,0 -1,0 -1,0l0 0c0,0 0,0 0,0l0 -1c-1,-1 0,-3 0,-4 0,-3 -1,-3 1,-3l0 -2 -6 0 0 2c1,0 2,-1 2,1 0,0 0,1 0,2 0,1 0,3 0,4l0 1zm14 -4c0,0 0,0 0,0 2,-1 2,-4 0,-5 -1,-1 -3,-1 -4,-1 -2,0 -3,0 -5,0l0 2c1,0 1,0 1,1l0 6c0,1 0,1 -1,1l0 1 6 0 0 -1c-2,0 -2,0 -2,-2l0 -1c1,0 2,0 3,0 0,0 1,0 2,-1z"/>
  </g>
 </g>
</svg>
